<svg xmlns="http://www.w3.org/2000/svg" xmlns:xlink="http://www.w3.org/1999/xlink" width="100" zoomAndPan="magnify" viewBox="0 0 75 74.999997" height="100" preserveAspectRatio="xMidYMid meet" version="1.0"><defs><g/><clipPath id="05ee404a8f"><path d="M 6 4.339844 L 72 4.339844 L 72 70.339844 L 6 70.339844 Z M 6 4.339844 " clip-rule="nonzero"/></clipPath></defs><g clip-path="url(#05ee404a8f)"><path fill="#000000" d="M 71.765625 11.816406 C 71.527344 11.238281 70.964844 10.863281 70.339844 10.863281 L 65.476562 10.863281 L 65.476562 6 C 65.476562 5.375 65.097656 4.8125 64.523438 4.570312 C 63.945312 4.332031 63.277344 4.464844 62.835938 4.90625 L 57.519531 10.222656 C 57.230469 10.511719 57.066406 10.90625 57.066406 11.316406 L 57.066406 17.085938 L 55.632812 18.515625 C 50.363281 13.761719 43.382812 10.863281 35.742188 10.863281 C 19.34375 10.863281 6.007812 24.203125 6.007812 40.597656 C 6.007812 56.992188 19.34375 70.332031 35.742188 70.332031 C 52.136719 70.332031 65.476562 56.992188 65.476562 40.597656 C 65.476562 32.953125 62.578125 25.976562 57.820312 20.703125 L 59.253906 19.273438 L 65.023438 19.273438 C 65.433594 19.273438 65.824219 19.109375 66.117188 18.820312 L 71.433594 13.503906 C 71.875 13.0625 72.007812 12.394531 71.765625 11.816406 Z M 62.382812 40.597656 C 62.382812 55.289062 50.429688 67.238281 35.742188 67.238281 C 21.050781 67.238281 9.101562 55.289062 9.101562 40.597656 C 9.101562 25.90625 21.050781 13.957031 35.742188 13.957031 C 42.53125 13.957031 48.734375 16.511719 53.445312 20.707031 L 47.746094 26.40625 C 44.503906 23.65625 40.3125 22 35.742188 22 C 25.484375 22 17.140625 30.34375 17.140625 40.597656 C 17.140625 50.851562 25.484375 59.195312 35.742188 59.195312 C 45.996094 59.195312 54.339844 50.851562 54.339844 40.597656 C 54.339844 36.027344 52.679688 31.835938 49.933594 28.59375 L 55.632812 22.894531 C 59.828125 27.605469 62.382812 33.808594 62.382812 40.597656 Z M 40.808594 40.597656 C 40.808594 43.390625 38.535156 45.664062 35.742188 45.664062 C 32.949219 45.664062 30.675781 43.390625 30.675781 40.597656 C 30.675781 37.804688 32.949219 35.53125 35.742188 35.53125 C 36.574219 35.53125 37.363281 35.734375 38.058594 36.09375 L 34.648438 39.503906 C 34.042969 40.109375 34.042969 41.085938 34.648438 41.691406 C 34.949219 41.992188 35.34375 42.144531 35.742188 42.144531 C 36.136719 42.144531 36.535156 41.992188 36.835938 41.691406 L 40.246094 38.28125 C 40.601562 38.976562 40.808594 39.761719 40.808594 40.597656 Z M 40.308594 33.839844 C 39.003906 32.957031 37.433594 32.4375 35.742188 32.4375 C 31.242188 32.4375 27.582031 36.097656 27.582031 40.597656 C 27.582031 45.097656 31.242188 48.757812 35.742188 48.757812 C 40.238281 48.757812 43.898438 45.097656 43.898438 40.597656 C 43.898438 38.90625 43.382812 37.332031 42.496094 36.027344 L 47.738281 30.785156 C 49.929688 33.460938 51.246094 36.878906 51.246094 40.597656 C 51.246094 49.148438 44.292969 56.101562 35.742188 56.101562 C 27.191406 56.101562 20.234375 49.148438 20.234375 40.597656 C 20.234375 32.046875 27.191406 25.09375 35.742188 25.09375 C 39.460938 25.09375 42.878906 26.410156 45.550781 28.597656 Z M 64.382812 16.179688 L 60.160156 16.179688 L 60.160156 11.957031 L 62.382812 9.734375 L 62.382812 12.410156 C 62.382812 13.261719 63.074219 13.957031 63.929688 13.957031 L 66.605469 13.957031 Z M 64.382812 16.179688 " fill-opacity="1" fill-rule="nonzero"/></g><g fill="#000000" fill-opacity="1"><g transform="translate(51.28962, 45.188173)"><g><path d="M 1.40625 0 L 0.890625 0 L 0.890625 -1.40625 C 0.890625 -1.46875 0.890625 -1.546875 0.890625 -1.640625 C 0.898438 -1.742188 0.90625 -1.832031 0.90625 -1.90625 C 0.894531 -1.882812 0.867188 -1.851562 0.828125 -1.8125 C 0.796875 -1.78125 0.765625 -1.753906 0.734375 -1.734375 L 0.453125 -1.5 L 0.203125 -1.8125 L 0.984375 -2.4375 L 1.40625 -2.4375 Z M 1.40625 0 "/></g></g></g></svg>