<svg xmlns="http://www.w3.org/2000/svg" xmlns:xlink="http://www.w3.org/1999/xlink" width="100" zoomAndPan="magnify" viewBox="0 0 75 74.999997" height="100" preserveAspectRatio="xMidYMid meet" version="1.0"><defs><g/><clipPath id="fcfba8223b"><path d="M 1.875 1.875 L 73.125 1.875 L 73.125 73.125 L 1.875 73.125 Z M 1.875 1.875 " clip-rule="nonzero"/></clipPath></defs><path fill="#000000" d="M 67.898438 37.5 C 67.898438 32.015625 66.4375 26.863281 63.886719 22.414062 C 63.867188 22.375 63.847656 22.339844 63.828125 22.300781 C 63.796875 22.25 63.765625 22.203125 63.734375 22.15625 C 61.097656 17.664062 57.335938 13.90625 52.84375 11.265625 C 52.796875 11.234375 52.75 11.203125 52.699219 11.171875 C 52.664062 11.152344 52.625 11.132812 52.585938 11.113281 C 48.136719 8.5625 42.988281 7.101562 37.503906 7.101562 C 37.5 7.101562 37.5 7.101562 37.5 7.101562 C 37.5 7.101562 37.5 7.101562 37.496094 7.101562 C 32.011719 7.101562 26.863281 8.5625 22.417969 11.113281 C 22.378906 11.132812 22.339844 11.152344 22.300781 11.171875 C 22.25 11.203125 22.203125 11.234375 22.15625 11.265625 C 17.664062 13.90625 13.90625 17.664062 11.265625 22.15625 C 11.234375 22.203125 11.203125 22.25 11.171875 22.300781 C 11.152344 22.339844 11.132812 22.378906 11.113281 22.417969 C 8.5625 26.863281 7.101562 32.015625 7.101562 37.5 C 7.101562 37.5 7.101562 37.503906 7.101562 37.503906 C 7.101562 42.988281 8.5625 48.136719 11.113281 52.582031 C 11.132812 52.621094 11.152344 52.660156 11.171875 52.699219 C 11.195312 52.738281 11.21875 52.769531 11.242188 52.804688 C 13.882812 57.316406 17.648438 61.085938 22.15625 63.734375 C 22.203125 63.765625 22.25 63.796875 22.300781 63.828125 C 22.328125 63.84375 22.355469 63.855469 22.382812 63.867188 C 26.835938 66.433594 32 67.898438 37.5 67.898438 C 43 67.898438 48.164062 66.433594 52.617188 63.867188 C 52.644531 63.855469 52.671875 63.84375 52.699219 63.828125 C 52.75 63.796875 52.796875 63.765625 52.84375 63.734375 C 57.351562 61.085938 61.117188 57.3125 63.757812 52.804688 C 63.78125 52.769531 63.804688 52.738281 63.828125 52.699219 C 63.847656 52.664062 63.867188 52.621094 63.886719 52.585938 C 66.4375 48.136719 67.898438 42.984375 67.898438 37.5 Z M 52.445312 60.066406 L 51.195312 57.894531 C 50.734375 57.101562 49.71875 56.828125 48.925781 57.285156 C 48.128906 57.746094 47.855469 58.761719 48.316406 59.554688 L 49.570312 61.730469 C 46.402344 63.316406 42.882812 64.296875 39.160156 64.523438 L 39.160156 62.007812 C 39.160156 61.089844 38.417969 60.347656 37.5 60.347656 C 36.582031 60.347656 35.839844 61.089844 35.839844 62.007812 L 35.839844 64.523438 C 32.117188 64.296875 28.597656 63.316406 25.429688 61.730469 L 26.683594 59.554688 C 27.144531 58.761719 26.871094 57.746094 26.078125 57.285156 C 25.28125 56.828125 24.265625 57.101562 23.808594 57.894531 L 22.554688 60.066406 C 19.535156 58.058594 16.941406 55.464844 14.933594 52.445312 L 17.105469 51.195312 C 17.902344 50.734375 18.171875 49.71875 17.714844 48.921875 C 17.253906 48.128906 16.238281 47.855469 15.445312 48.316406 L 13.269531 49.570312 C 11.683594 46.402344 10.703125 42.882812 10.476562 39.160156 L 12.992188 39.160156 C 13.273438 39.160156 13.539062 39.089844 13.773438 38.964844 C 13.777344 38.964844 13.78125 38.964844 13.785156 38.960938 C 13.824219 38.9375 13.863281 38.914062 13.902344 38.890625 C 13.90625 38.886719 13.914062 38.882812 13.921875 38.878906 C 13.964844 38.847656 14.003906 38.816406 14.046875 38.785156 C 14.046875 38.785156 14.046875 38.785156 14.046875 38.78125 C 14.417969 38.476562 14.652344 38.015625 14.652344 37.5 C 14.652344 36.582031 13.910156 35.839844 12.992188 35.839844 L 10.476562 35.839844 C 10.703125 32.117188 11.683594 28.597656 13.269531 25.429688 L 15.445312 26.683594 C 15.707031 26.835938 15.992188 26.90625 16.273438 26.90625 C 16.847656 26.90625 17.40625 26.609375 17.714844 26.078125 C 18.171875 25.28125 17.902344 24.265625 17.105469 23.808594 L 14.933594 22.554688 C 16.941406 19.535156 19.535156 16.941406 22.554688 14.933594 L 23.808594 17.105469 C 24.113281 17.640625 24.671875 17.9375 25.246094 17.9375 C 25.527344 17.9375 25.816406 17.863281 26.078125 17.714844 C 26.871094 17.253906 27.144531 16.238281 26.683594 15.445312 L 25.429688 13.269531 C 28.597656 11.683594 32.117188 10.703125 35.839844 10.476562 L 35.839844 12.992188 C 35.839844 13.910156 36.582031 14.652344 37.5 14.652344 C 38.417969 14.652344 39.160156 13.910156 39.160156 12.992188 L 39.160156 10.476562 C 42.882812 10.703125 46.402344 11.683594 49.570312 13.269531 L 48.316406 15.445312 C 47.855469 16.238281 48.128906 17.253906 48.921875 17.714844 C 49.183594 17.863281 49.472656 17.9375 49.753906 17.9375 C 50.328125 17.9375 50.886719 17.640625 51.191406 17.105469 L 52.445312 14.933594 C 55.464844 16.941406 58.058594 19.535156 60.066406 22.554688 L 57.894531 23.804688 C 57.101562 24.265625 56.828125 25.28125 57.285156 26.078125 C 57.59375 26.609375 58.152344 26.90625 58.726562 26.90625 C 59.007812 26.90625 59.292969 26.835938 59.554688 26.683594 L 61.730469 25.429688 C 63.316406 28.597656 64.296875 32.117188 64.523438 35.839844 L 62.007812 35.839844 C 61.722656 35.839844 61.453125 35.910156 61.21875 36.039062 C 60.699219 36.320312 60.347656 36.867188 60.347656 37.5 C 60.347656 38.417969 61.089844 39.160156 62.007812 39.160156 L 64.523438 39.160156 C 64.296875 42.882812 63.316406 46.402344 61.730469 49.570312 L 59.554688 48.316406 C 58.761719 47.855469 57.746094 48.128906 57.285156 48.921875 C 56.828125 49.71875 57.101562 50.734375 57.894531 51.191406 L 60.066406 52.445312 C 58.058594 55.464844 55.464844 58.058594 52.445312 60.066406 Z M 52.445312 60.066406 " fill-opacity="1" fill-rule="nonzero"/><g clip-path="url(#fcfba8223b)"><path fill="#000000" d="M 62.691406 12.308594 C 55.960938 5.582031 47.015625 1.875 37.5 1.875 C 27.984375 1.875 19.039062 5.582031 12.308594 12.308594 C 5.582031 19.039062 1.875 27.984375 1.875 37.5 C 1.875 47.015625 5.582031 55.960938 12.308594 62.691406 C 19.039062 69.417969 27.984375 73.125 37.5 73.125 C 47.015625 73.125 55.960938 69.417969 62.691406 62.691406 C 69.417969 55.960938 73.125 47.015625 73.125 37.5 C 73.125 27.984375 69.417969 19.039062 62.691406 12.308594 Z M 37.5 69.800781 C 19.6875 69.800781 5.199219 55.3125 5.199219 37.5 C 5.199219 19.6875 19.6875 5.199219 37.5 5.199219 C 55.3125 5.199219 69.800781 19.6875 69.800781 37.5 C 69.800781 55.3125 55.3125 69.800781 37.5 69.800781 Z M 37.5 69.800781 " fill-opacity="1" fill-rule="nonzero"/></g><path fill="#000000" d="M 51.667969 27.433594 L 37.5 35.582031 L 24.289062 28 C 23.496094 27.542969 22.480469 27.816406 22.023438 28.613281 C 21.566406 29.410156 21.839844 30.425781 22.636719 30.882812 L 36.671875 38.941406 C 36.929688 39.089844 37.214844 39.160156 37.5 39.160156 C 37.785156 39.160156 38.070312 39.089844 38.328125 38.941406 L 53.328125 30.316406 C 54.121094 29.855469 54.394531 28.839844 53.9375 28.046875 C 53.480469 27.25 52.464844 26.976562 51.667969 27.433594 Z M 51.667969 27.433594 " fill-opacity="1" fill-rule="nonzero"/><g fill="#000000" fill-opacity="1"><g transform="translate(59.968187, 51.723884)"><g><path d="M 1.40625 0 L 0.890625 0 L 0.890625 -1.40625 C 0.890625 -1.46875 0.890625 -1.546875 0.890625 -1.640625 C 0.898438 -1.742188 0.90625 -1.832031 0.90625 -1.90625 C 0.894531 -1.882812 0.867188 -1.851562 0.828125 -1.8125 C 0.796875 -1.78125 0.765625 -1.753906 0.734375 -1.734375 L 0.453125 -1.5 L 0.203125 -1.8125 L 0.984375 -2.4375 L 1.40625 -2.4375 Z M 1.40625 0 "/></g></g></g></svg>