<svg xmlns="http://www.w3.org/2000/svg" xmlns:xlink="http://www.w3.org/1999/xlink" width="100" zoomAndPan="magnify" viewBox="0 0 75 74.999997" height="100" preserveAspectRatio="xMidYMid meet" version="1.0"><defs><g/><clipPath id="35d359f4f7"><path d="M 45 9.703125 L 71.5 9.703125 L 71.5 37 L 45 37 Z M 45 9.703125 " clip-rule="nonzero"/></clipPath><clipPath id="209d1874af"><path d="M 3.25 9.703125 L 30 9.703125 L 30 37 L 3.25 37 Z M 3.25 9.703125 " clip-rule="nonzero"/></clipPath><clipPath id="e21138c5af"><path d="M 36 58 L 45 58 L 45 67.453125 L 36 67.453125 Z M 36 58 " clip-rule="nonzero"/></clipPath><clipPath id="c0f78c2a6f"><path d="M 30 58 L 40 58 L 40 67.453125 L 30 67.453125 Z M 30 58 " clip-rule="nonzero"/></clipPath></defs><g clip-path="url(#35d359f4f7)"><path fill="#000000" d="M 65.277344 36.089844 C 65.003906 36.089844 64.730469 35.984375 64.523438 35.777344 L 45.671875 16.875 C 45.472656 16.671875 45.359375 16.402344 45.359375 16.117188 C 45.359375 15.832031 45.472656 15.5625 45.671875 15.359375 L 50.828125 10.1875 C 51.246094 9.769531 51.921875 9.769531 52.335938 10.1875 L 71.191406 29.09375 C 71.390625 29.296875 71.503906 29.566406 71.503906 29.851562 C 71.503906 30.132812 71.390625 30.40625 71.191406 30.605469 L 66.03125 35.777344 C 65.824219 35.984375 65.550781 36.089844 65.277344 36.089844 Z M 47.933594 16.117188 L 65.277344 33.507812 L 68.929688 29.851562 L 51.582031 12.457031 Z M 47.933594 16.117188 " fill-opacity="1" fill-rule="nonzero"/></g><g clip-path="url(#209d1874af)"><path fill="#000000" d="M 9.476562 36.089844 C 9.203125 36.089844 8.929688 35.984375 8.722656 35.777344 L 3.558594 30.601562 C 3.359375 30.402344 3.246094 30.128906 3.246094 29.847656 C 3.246094 29.5625 3.359375 29.289062 3.558594 29.089844 L 22.410156 10.183594 C 22.828125 9.765625 23.5 9.765625 23.917969 10.183594 L 29.082031 15.359375 C 29.28125 15.5625 29.394531 15.832031 29.394531 16.117188 C 29.394531 16.402344 29.28125 16.671875 29.082031 16.875 L 10.230469 35.777344 C 10.023438 35.984375 9.75 36.089844 9.476562 36.089844 Z M 5.820312 29.847656 L 9.476562 33.507812 L 26.820312 16.117188 L 23.164062 12.453125 Z M 5.820312 29.847656 " fill-opacity="1" fill-rule="nonzero"/></g><path fill="#000000" d="M 19.277344 47.429688 C 18.84375 47.429688 18.4375 47.164062 18.277344 46.738281 L 13.753906 34.640625 C 13.546875 34.085938 13.828125 33.472656 14.378906 33.261719 C 14.929688 33.058594 15.546875 33.335938 15.75 33.890625 L 20.273438 45.984375 C 20.480469 46.539062 20.203125 47.15625 19.652344 47.363281 C 19.527344 47.410156 19.402344 47.429688 19.277344 47.429688 Z M 19.277344 47.429688 " fill-opacity="1" fill-rule="nonzero"/><path fill="#000000" d="M 37.375 24.746094 C 37.296875 24.746094 37.214844 24.734375 37.132812 24.71875 L 27.332031 22.449219 C 26.757812 22.316406 26.398438 21.742188 26.53125 21.167969 C 26.664062 20.59375 27.238281 20.234375 27.808594 20.367188 L 37.613281 22.632812 C 38.1875 22.765625 38.542969 23.339844 38.414062 23.917969 C 38.300781 24.410156 37.859375 24.746094 37.375 24.746094 Z M 37.375 24.746094 " fill-opacity="1" fill-rule="nonzero"/><path fill="#000000" d="M 53.964844 53.667969 C 52.824219 53.667969 51.753906 53.222656 50.949219 52.410156 L 50.195312 51.65625 C 49.78125 51.238281 49.78125 50.5625 50.195312 50.144531 C 50.613281 49.726562 51.289062 49.726562 51.703125 50.144531 L 52.457031 50.902344 C 53.265625 51.710938 54.667969 51.710938 55.472656 50.902344 C 55.878906 50.496094 56.097656 49.960938 56.097656 49.390625 C 56.097656 48.820312 55.878906 48.28125 55.472656 47.875 L 54.71875 47.121094 C 54.304688 46.703125 54.304688 46.027344 54.71875 45.609375 C 55.136719 45.191406 55.8125 45.191406 56.226562 45.609375 L 56.980469 46.363281 C 57.789062 47.171875 58.230469 48.246094 58.230469 49.390625 C 58.230469 50.53125 57.789062 51.605469 56.980469 52.414062 C 56.175781 53.222656 55.105469 53.667969 53.964844 53.667969 Z M 53.964844 53.667969 " fill-opacity="1" fill-rule="nonzero"/><path fill="#000000" d="M 49.441406 58.203125 C 49.441406 58.203125 49.441406 58.203125 49.4375 58.203125 C 48.300781 58.203125 47.230469 57.757812 46.425781 56.949219 L 45.671875 56.191406 C 45.253906 55.773438 45.253906 55.097656 45.671875 54.679688 C 46.089844 54.261719 46.761719 54.261719 47.179688 54.679688 L 47.933594 55.4375 C 48.335938 55.839844 48.871094 56.066406 49.441406 56.066406 C 50.007812 56.066406 50.546875 55.839844 50.949219 55.4375 C 51.78125 54.605469 51.777344 53.246094 50.949219 52.410156 L 50.195312 51.65625 C 49.777344 51.238281 49.777344 50.5625 50.195312 50.144531 C 50.613281 49.726562 51.285156 49.726562 51.703125 50.144531 L 52.457031 50.902344 C 54.121094 52.570312 54.121094 55.285156 52.457031 56.949219 C 51.652344 57.757812 50.582031 58.203125 49.441406 58.203125 Z M 49.441406 58.203125 " fill-opacity="1" fill-rule="nonzero"/><path fill="#000000" d="M 44.917969 62.738281 C 43.824219 62.738281 42.730469 62.320312 41.902344 61.488281 L 41.144531 60.734375 C 40.730469 60.316406 40.730469 59.640625 41.144531 59.21875 C 41.5625 58.800781 42.238281 58.800781 42.652344 59.21875 L 43.40625 59.976562 C 44.238281 60.808594 45.59375 60.808594 46.425781 59.976562 C 47.253906 59.144531 47.253906 57.785156 46.425781 56.949219 L 45.671875 56.195312 C 45.253906 55.777344 45.253906 55.101562 45.671875 54.683594 C 46.089844 54.265625 46.761719 54.265625 47.179688 54.683594 L 47.933594 55.4375 C 49.59375 57.109375 49.59375 59.820312 47.933594 61.488281 C 47.101562 62.320312 46.007812 62.738281 44.917969 62.738281 Z M 44.917969 62.738281 " fill-opacity="1" fill-rule="nonzero"/><g clip-path="url(#e21138c5af)"><path fill="#000000" d="M 40.394531 67.273438 C 39.300781 67.273438 38.207031 66.859375 37.378906 66.027344 L 36.621094 65.269531 C 36.207031 64.851562 36.207031 64.175781 36.621094 63.757812 C 37.039062 63.339844 37.714844 63.339844 38.128906 63.757812 L 38.882812 64.511719 C 39.714844 65.34375 41.066406 65.347656 41.898438 64.511719 C 42.304688 64.109375 42.523438 63.570312 42.523438 63 C 42.523438 62.429688 42.304688 61.894531 41.902344 61.488281 L 41.144531 60.734375 C 40.730469 60.316406 40.730469 59.640625 41.144531 59.21875 C 41.5625 58.800781 42.238281 58.800781 42.652344 59.21875 L 43.40625 59.976562 C 44.214844 60.78125 44.65625 61.859375 44.65625 63 C 44.65625 64.144531 44.214844 65.214844 43.40625 66.023438 C 42.578125 66.859375 41.484375 67.273438 40.394531 67.273438 Z M 40.394531 67.273438 " fill-opacity="1" fill-rule="nonzero"/></g><path fill="#000000" d="M 13.246094 36.847656 C 12.972656 36.847656 12.699219 36.742188 12.492188 36.535156 C 12.074219 36.117188 12.074219 35.441406 12.492188 35.023438 L 28.324219 19.140625 C 28.742188 18.722656 29.414062 18.722656 29.832031 19.140625 C 30.25 19.558594 30.25 20.234375 29.832031 20.652344 L 14 36.535156 C 13.789062 36.742188 13.515625 36.847656 13.246094 36.847656 Z M 13.246094 36.847656 " fill-opacity="1" fill-rule="nonzero"/><path fill="#000000" d="M 29.078125 20.964844 C 28.804688 20.964844 28.53125 20.859375 28.324219 20.652344 L 26.0625 18.382812 C 25.644531 17.964844 25.644531 17.289062 26.0625 16.871094 C 26.480469 16.453125 27.152344 16.453125 27.570312 16.871094 L 29.832031 19.140625 C 30.25 19.558594 30.25 20.234375 29.832031 20.652344 C 29.625 20.859375 29.351562 20.964844 29.078125 20.964844 Z M 29.078125 20.964844 " fill-opacity="1" fill-rule="nonzero"/><path fill="#000000" d="M 13.246094 36.847656 C 12.972656 36.847656 12.699219 36.742188 12.492188 36.535156 L 10.226562 34.265625 C 9.8125 33.847656 9.8125 33.171875 10.226562 32.753906 C 10.644531 32.335938 11.320312 32.335938 11.738281 32.753906 L 14 35.023438 C 14.414062 35.441406 14.414062 36.117188 14 36.535156 C 13.789062 36.742188 13.515625 36.847656 13.246094 36.847656 Z M 13.246094 36.847656 " fill-opacity="1" fill-rule="nonzero"/><path fill="#000000" d="M 55.472656 47.433594 C 55.347656 47.433594 55.222656 47.410156 55.101562 47.367188 C 54.546875 47.160156 54.269531 46.542969 54.476562 45.992188 L 59 33.890625 C 59.203125 33.335938 59.824219 33.058594 60.371094 33.265625 C 60.921875 33.472656 61.203125 34.089844 60.996094 34.640625 L 56.472656 46.738281 C 56.3125 47.167969 55.90625 47.433594 55.472656 47.433594 Z M 55.472656 47.433594 " fill-opacity="1" fill-rule="nonzero"/><path fill="#000000" d="M 37.375 24.746094 C 36.890625 24.746094 36.449219 24.414062 36.335938 23.917969 C 36.203125 23.34375 36.5625 22.769531 37.136719 22.636719 L 46.941406 20.367188 C 47.511719 20.234375 48.085938 20.59375 48.21875 21.167969 C 48.351562 21.746094 47.992188 22.320312 47.417969 22.453125 L 37.613281 24.71875 C 37.535156 24.738281 37.453125 24.746094 37.375 24.746094 Z M 37.375 24.746094 " fill-opacity="1" fill-rule="nonzero"/><path fill="#000000" d="M 29.082031 33.066406 C 28.808594 33.066406 28.535156 32.960938 28.328125 32.753906 C 27.910156 32.335938 27.910156 31.660156 28.328125 31.242188 L 36.621094 22.921875 C 37.039062 22.503906 37.714844 22.503906 38.128906 22.921875 C 38.546875 23.339844 38.546875 24.015625 38.128906 24.433594 L 29.835938 32.753906 C 29.628906 32.960938 29.355469 33.066406 29.082031 33.066406 Z M 29.082031 33.066406 " fill-opacity="1" fill-rule="nonzero"/><path fill="#000000" d="M 33.605469 37.601562 C 33.332031 37.601562 33.058594 37.5 32.851562 37.289062 C 32.433594 36.871094 32.433594 36.195312 32.851562 35.777344 L 37.375 31.242188 C 37.792969 30.824219 38.46875 30.824219 38.882812 31.242188 C 39.300781 31.660156 39.300781 32.335938 38.882812 32.753906 L 34.359375 37.289062 C 34.152344 37.5 33.878906 37.601562 33.605469 37.601562 Z M 33.605469 37.601562 " fill-opacity="1" fill-rule="nonzero"/><path fill="#000000" d="M 41.144531 33.066406 C 40.871094 33.066406 40.601562 32.960938 40.390625 32.753906 C 39.976562 32.335938 39.300781 32.335938 38.882812 32.753906 C 38.46875 33.171875 37.792969 33.171875 37.375 32.753906 C 36.960938 32.335938 36.960938 31.660156 37.375 31.242188 C 38.625 29.988281 40.652344 29.988281 41.898438 31.242188 C 42.316406 31.660156 42.316406 32.335938 41.898438 32.753906 C 41.691406 32.960938 41.417969 33.066406 41.144531 33.066406 Z M 41.144531 33.066406 " fill-opacity="1" fill-rule="nonzero"/><path fill="#000000" d="M 55.472656 47.433594 C 55.199219 47.433594 54.929688 47.328125 54.71875 47.121094 L 40.390625 32.753906 C 39.976562 32.335938 39.976562 31.660156 40.390625 31.242188 C 40.808594 30.824219 41.484375 30.824219 41.898438 31.242188 L 56.226562 45.609375 C 56.644531 46.027344 56.644531 46.703125 56.226562 47.121094 C 56.019531 47.332031 55.746094 47.433594 55.472656 47.433594 Z M 55.472656 47.433594 " fill-opacity="1" fill-rule="nonzero"/><path fill="#000000" d="M 31.34375 38.539062 C 30.253906 38.539062 29.160156 38.125 28.328125 37.289062 C 26.664062 35.621094 26.664062 32.910156 28.328125 31.242188 C 28.746094 30.824219 29.417969 30.824219 29.835938 31.242188 C 30.253906 31.660156 30.253906 32.335938 29.835938 32.753906 C 29.003906 33.585938 29.003906 34.945312 29.835938 35.777344 C 30.667969 36.609375 32.023438 36.609375 32.851562 35.777344 C 33.269531 35.359375 33.941406 35.359375 34.359375 35.777344 C 34.777344 36.195312 34.777344 36.871094 34.359375 37.289062 C 33.53125 38.125 32.4375 38.539062 31.34375 38.539062 Z M 31.34375 38.539062 " fill-opacity="1" fill-rule="nonzero"/><path fill="#000000" d="M 20.785156 53.667969 C 19.644531 53.667969 18.574219 53.222656 17.769531 52.414062 C 16.105469 50.746094 16.105469 48.035156 17.769531 46.367188 L 18.523438 45.609375 C 20.132812 43.992188 22.941406 43.992188 24.554688 45.609375 C 26.21875 47.277344 26.21875 49.992188 24.554688 51.660156 L 23.800781 52.414062 C 22.996094 53.222656 21.921875 53.667969 20.785156 53.667969 Z M 21.539062 46.496094 C 20.96875 46.496094 20.433594 46.71875 20.03125 47.121094 L 19.277344 47.878906 C 18.445312 48.710938 18.445312 50.070312 19.277344 50.902344 C 20.082031 51.710938 21.484375 51.710938 22.292969 50.902344 L 23.046875 50.148438 C 23.875 49.3125 23.875 47.957031 23.046875 47.121094 C 22.644531 46.71875 22.109375 46.496094 21.539062 46.496094 Z M 21.539062 46.496094 " fill-opacity="1" fill-rule="nonzero"/><path fill="#000000" d="M 25.308594 58.203125 C 24.171875 58.203125 23.097656 57.761719 22.292969 56.953125 C 20.628906 55.28125 20.628906 52.570312 22.292969 50.902344 L 23.046875 50.148438 C 24.660156 48.53125 27.46875 48.53125 29.082031 50.148438 C 30.742188 51.816406 30.742188 54.527344 29.082031 56.195312 L 28.328125 56.953125 C 27.519531 57.761719 26.449219 58.203125 25.308594 58.203125 Z M 26.0625 51.03125 C 25.492188 51.03125 24.957031 51.253906 24.554688 51.660156 L 23.800781 52.414062 C 22.96875 53.25 22.96875 54.605469 23.800781 55.4375 C 24.605469 56.246094 26.011719 56.246094 26.820312 55.4375 L 27.574219 54.683594 C 28.402344 53.851562 28.402344 52.492188 27.574219 51.660156 C 27.167969 51.253906 26.632812 51.03125 26.0625 51.03125 Z M 26.0625 51.03125 " fill-opacity="1" fill-rule="nonzero"/><path fill="#000000" d="M 29.832031 62.746094 C 28.695312 62.746094 27.621094 62.300781 26.816406 61.488281 C 25.152344 59.824219 25.152344 57.109375 26.820312 55.441406 L 27.574219 54.683594 C 29.183594 53.066406 31.992188 53.066406 33.605469 54.683594 C 35.269531 56.351562 35.269531 59.066406 33.605469 60.734375 L 32.851562 61.492188 C 32.042969 62.300781 30.972656 62.746094 29.832031 62.746094 Z M 30.589844 55.570312 C 30.019531 55.570312 29.484375 55.792969 29.082031 56.195312 L 28.328125 56.953125 C 27.496094 57.785156 27.496094 59.144531 28.328125 59.980469 C 29.132812 60.789062 30.535156 60.789062 31.34375 59.980469 L 32.097656 59.222656 C 32.929688 58.390625 32.929688 57.03125 32.097656 56.195312 C 31.691406 55.792969 31.15625 55.570312 30.589844 55.570312 Z M 30.589844 55.570312 " fill-opacity="1" fill-rule="nonzero"/><g clip-path="url(#c0f78c2a6f)"><path fill="#000000" d="M 34.359375 67.28125 C 33.21875 67.28125 32.148438 66.835938 31.34375 66.027344 C 29.679688 64.359375 29.679688 61.644531 31.34375 59.980469 L 32.097656 59.222656 C 33.707031 57.605469 36.515625 57.605469 38.128906 59.222656 C 39.792969 60.890625 39.792969 63.605469 38.128906 65.269531 L 37.375 66.027344 C 36.566406 66.835938 35.496094 67.28125 34.359375 67.28125 Z M 35.113281 60.109375 C 34.542969 60.109375 34.007812 60.332031 33.605469 60.734375 L 32.851562 61.492188 C 32.019531 62.324219 32.019531 63.683594 32.851562 64.515625 C 33.65625 65.324219 35.058594 65.324219 35.867188 64.515625 L 36.621094 63.757812 C 37.449219 62.925781 37.449219 61.566406 36.621094 60.734375 C 36.21875 60.332031 35.679688 60.109375 35.113281 60.109375 Z M 35.113281 60.109375 " fill-opacity="1" fill-rule="nonzero"/></g><path fill="#000000" d="M 61.503906 36.847656 C 61.234375 36.847656 60.960938 36.742188 60.75 36.535156 L 44.917969 20.65625 C 44.5 20.238281 44.5 19.5625 44.917969 19.144531 C 45.335938 18.726562 46.007812 18.726562 46.425781 19.144531 L 62.257812 35.023438 C 62.675781 35.441406 62.675781 36.117188 62.257812 36.535156 C 62.050781 36.742188 61.777344 36.847656 61.503906 36.847656 Z M 61.503906 36.847656 " fill-opacity="1" fill-rule="nonzero"/><path fill="#000000" d="M 45.671875 20.96875 C 45.398438 20.96875 45.125 20.863281 44.917969 20.65625 C 44.5 20.238281 44.5 19.5625 44.917969 19.144531 L 47.179688 16.875 C 47.597656 16.453125 48.269531 16.453125 48.6875 16.875 C 49.105469 17.289062 49.105469 17.96875 48.6875 18.386719 L 46.425781 20.65625 C 46.21875 20.863281 45.945312 20.96875 45.671875 20.96875 Z M 45.671875 20.96875 " fill-opacity="1" fill-rule="nonzero"/><path fill="#000000" d="M 61.503906 36.847656 C 61.234375 36.847656 60.960938 36.742188 60.75 36.535156 C 60.335938 36.117188 60.335938 35.441406 60.75 35.023438 L 63.011719 32.753906 C 63.429688 32.335938 64.105469 32.335938 64.519531 32.753906 C 64.9375 33.171875 64.9375 33.847656 64.519531 34.265625 L 62.257812 36.535156 C 62.050781 36.742188 61.777344 36.847656 61.503906 36.847656 Z M 61.503906 36.847656 " fill-opacity="1" fill-rule="nonzero"/><g fill="#000000" fill-opacity="1"><g transform="translate(55.361049, 45.188173)"><g><path d="M 1.40625 0 L 0.890625 0 L 0.890625 -1.40625 C 0.890625 -1.46875 0.890625 -1.546875 0.890625 -1.640625 C 0.898438 -1.742188 0.90625 -1.832031 0.90625 -1.90625 C 0.894531 -1.882812 0.867188 -1.851562 0.828125 -1.8125 C 0.796875 -1.78125 0.765625 -1.753906 0.734375 -1.734375 L 0.453125 -1.5 L 0.203125 -1.8125 L 0.984375 -2.4375 L 1.40625 -2.4375 Z M 1.40625 0 "/></g></g></g></svg>